<svg width="145" height="38" viewBox="0 0 145 38" fill="none" xmlns="http://www.w3.org/2000/svg">
<g filter="url(#filter0_dd_1288_15591)">
<rect x="3.1" y="2.1" width="31.8" height="31.8" rx="7.9" fill="white"/>
<rect x="3.1" y="2.1" width="31.8" height="31.8" rx="7.9" fill="url(#paint0_linear_1288_15591)"/>
<path fill-rule="evenodd" clip-rule="evenodd" d="M18.9998 4.03885C11.2892 4.03885 5.03861 10.2895 5.03861 18C5.03861 25.7106 11.2892 31.9612 18.9998 31.9612C26.7103 31.9612 32.9609 25.7106 32.9609 18C32.9609 10.2895 26.7103 4.03885 18.9998 4.03885ZM4.96094 18C4.96094 10.2466 11.2463 3.96118 18.9998 3.96118C26.7532 3.96118 33.0386 10.2466 33.0386 18C33.0386 25.7535 26.7532 32.0389 18.9998 32.0389C11.2463 32.0389 4.96094 25.7535 4.96094 18Z" fill="#D0D5DD"/>
<path fill-rule="evenodd" clip-rule="evenodd" d="M19 14.0779C16.8338 14.0779 15.0777 15.834 15.0777 18.0002C15.0777 20.1665 16.8338 21.9226 19 21.9226C21.1662 21.9226 22.9223 20.1665 22.9223 18.0002C22.9223 15.834 21.1662 14.0779 19 14.0779ZM15 18.0002C15 15.7911 16.7909 14.0002 19 14.0002C21.2091 14.0002 23 15.7911 23 18.0002C23 20.2094 21.2091 22.0002 19 22.0002C16.7909 22.0002 15 20.2094 15 18.0002Z" fill="#D0D5DD"/>
<path fill-rule="evenodd" clip-rule="evenodd" d="M19.0004 15.3201C17.5205 15.3201 16.3208 16.5198 16.3208 17.9997C16.3208 19.4796 17.5205 20.6793 19.0004 20.6793C20.4804 20.6793 21.6801 19.4796 21.6801 17.9997C21.6801 16.5198 20.4804 15.3201 19.0004 15.3201ZM16.2432 17.9997C16.2432 16.4769 17.4776 15.2424 19.0004 15.2424C20.5233 15.2424 21.7577 16.4769 21.7577 17.9997C21.7577 19.5225 20.5233 20.757 19.0004 20.757C17.4776 20.757 16.2432 19.5225 16.2432 17.9997Z" fill="#D0D5DD"/>
<path d="M18.9609 2H19.0386V34H18.9609V2Z" fill="#D0D5DD"/>
<path d="M35 17.9609L35 18.0386L3 18.0386L3 17.9609L35 17.9609Z" fill="#D0D5DD"/>
<path d="M29.6016 2H29.6792V34H29.6016V2Z" fill="#D0D5DD"/>
<path d="M13.6406 2H13.7183V34H13.6406V2Z" fill="#D0D5DD"/>
<path d="M24.2812 2H24.3589V34H24.2812V2Z" fill="#D0D5DD"/>
<path d="M8.32031 2H8.39798V34H8.32031V2Z" fill="#D0D5DD"/>
<path d="M35 28.6016L35 28.6792L3 28.6792L3 28.6016L35 28.6016Z" fill="#D0D5DD"/>
<path d="M35 12.6406L35 12.7183L3 12.7183L3 12.6406L35 12.6406Z" fill="#D0D5DD"/>
<path d="M35 23.2812L35 23.3589L3 23.3589L3 23.2812L35 23.2812Z" fill="#D0D5DD"/>
<path d="M35 7.32031L35 7.39798L3 7.39798L3 7.32031L35 7.32031Z" fill="#D0D5DD"/>
<g filter="url(#filter1_dd_1288_15591)">
<circle cx="19" cy="18" r="8" fill="url(#paint1_linear_1288_15591)"/>
</g>
<g filter="url(#filter2_b_1288_15591)">
<path d="M3 18H35V21.2C35 25.6804 35 27.9206 34.1281 29.6319C33.3611 31.1372 32.1372 32.3611 30.6319 33.1281C28.9206 34 26.6804 34 22.2 34H15.8C11.3196 34 9.07937 34 7.36808 33.1281C5.86278 32.3611 4.63893 31.1372 3.87195 29.6319C3 27.9206 3 25.6804 3 21.2V18Z" fill="white" fill-opacity="0.2"/>
</g>
<rect x="3.1" y="2.1" width="31.8" height="31.8" rx="7.9" stroke="#D0D5DD" stroke-width="0.2"/>
</g>
<path d="M54.004 10.4545H56.6389V19.9574C56.6389 20.999 56.3927 21.9152 55.9003 22.7059C55.4126 23.4967 54.7261 24.1146 53.8406 24.5596C52.9552 25 51.9207 25.2202 50.7369 25.2202C49.5485 25.2202 48.5116 25 47.6262 24.5596C46.7407 24.1146 46.0542 23.4967 45.5665 22.7059C45.0788 21.9152 44.835 20.999 44.835 19.9574V10.4545H47.4699V19.7372C47.4699 20.3433 47.6025 20.883 47.8676 21.3565C48.1375 21.83 48.5163 22.2017 49.004 22.4716C49.4917 22.7367 50.0693 22.8693 50.7369 22.8693C51.4046 22.8693 51.9822 22.7367 52.4699 22.4716C52.9623 22.2017 53.3411 21.83 53.6063 21.3565C53.8714 20.883 54.004 20.3433 54.004 19.7372V10.4545Z" fill="#101828"/>
<path d="M61.9603 18.6079V25H59.3893V14.0909H61.8467V15.9446H61.9745C62.2255 15.3338 62.6256 14.8485 63.1748 14.4886C63.7288 14.1288 64.413 13.9488 65.2274 13.9488C65.9802 13.9488 66.636 14.1098 67.1947 14.4318C67.7581 14.7538 68.1937 15.2202 68.5015 15.8309C68.814 16.4417 68.9679 17.1827 68.9632 18.054V25H66.3921V18.4517C66.3921 17.7225 66.2027 17.152 65.824 16.74C65.4499 16.3281 64.9314 16.1221 64.2686 16.1221C63.8187 16.1221 63.4186 16.2216 63.0683 16.4204C62.7226 16.6146 62.4504 16.8963 62.2515 17.2656C62.0574 17.6349 61.9603 18.0824 61.9603 18.6079Z" fill="#101828"/>
<path d="M77.0242 14.0909V16.0795H70.7529V14.0909H77.0242ZM72.3012 11.4773H74.8722V21.7187C74.8722 22.0644 74.9243 22.3295 75.0285 22.5142C75.1374 22.6941 75.2794 22.8172 75.4546 22.8835C75.6298 22.9498 75.824 22.9829 76.037 22.9829C76.198 22.9829 76.3448 22.9711 76.4774 22.9474C76.6147 22.9238 76.7188 22.9024 76.7899 22.8835L77.2231 24.8934C77.0858 24.9408 76.8893 24.9929 76.6336 25.0497C76.3827 25.1065 76.0749 25.1397 75.7103 25.1491C75.0664 25.1681 74.4864 25.071 73.9703 24.8579C73.4542 24.6401 73.0446 24.304 72.7416 23.8494C72.4433 23.3949 72.2965 22.8267 72.3012 22.1449V11.4773Z" fill="#101828"/>
<path d="M79.1744 25V14.0909H81.7455V25H79.1744ZM80.4671 12.5426C80.0599 12.5426 79.7095 12.4077 79.4159 12.1378C79.1224 11.8631 78.9756 11.5341 78.9756 11.1506C78.9756 10.7623 79.1224 10.4332 79.4159 10.1633C79.7095 9.88871 80.0599 9.7514 80.4671 9.7514C80.879 9.7514 81.2294 9.88871 81.5182 10.1633C81.8118 10.4332 81.9585 10.7623 81.9585 11.1506C81.9585 11.5341 81.8118 11.8631 81.5182 12.1378C81.2294 12.4077 80.879 12.5426 80.4671 12.5426Z" fill="#101828"/>
<path d="M89.8367 14.0909V16.0795H83.5654V14.0909H89.8367ZM85.1137 11.4773H87.6847V21.7187C87.6847 22.0644 87.7368 22.3295 87.841 22.5142C87.9499 22.6941 88.0919 22.8172 88.2671 22.8835C88.4423 22.9498 88.6365 22.9829 88.8495 22.9829C89.0105 22.9829 89.1573 22.9711 89.2899 22.9474C89.4272 22.9238 89.5313 22.9024 89.6024 22.8835L90.0356 24.8934C89.8983 24.9408 89.7018 24.9929 89.4461 25.0497C89.1952 25.1065 88.8874 25.1397 88.5228 25.1491C87.8789 25.1681 87.2989 25.071 86.7828 24.8579C86.2667 24.6401 85.8571 24.304 85.5541 23.8494C85.2558 23.3949 85.109 22.8267 85.1137 22.1449V11.4773Z" fill="#101828"/>
<path d="M94.7923 10.4545V25H92.2213V10.4545H94.7923Z" fill="#101828"/>
<path d="M102.266 25.2131C101.172 25.2131 100.227 24.9858 99.4319 24.5312C98.6412 24.072 98.0328 23.4233 97.6066 22.5852C97.1805 21.7424 96.9674 20.7505 96.9674 19.6094C96.9674 18.4872 97.1805 17.5024 97.6066 16.6548C98.0375 15.8025 98.6388 15.1397 99.4106 14.6662C100.182 14.188 101.089 13.9488 102.131 13.9488C102.803 13.9488 103.438 14.0577 104.034 14.2756C104.636 14.4886 105.166 14.8201 105.625 15.2699C106.089 15.7197 106.454 16.2926 106.719 16.9886C106.984 17.6799 107.117 18.5038 107.117 19.4602V20.2486H98.1748V18.5156H104.652C104.647 18.0232 104.541 17.5852 104.332 17.2017C104.124 16.8134 103.833 16.508 103.459 16.2855C103.09 16.063 102.659 15.9517 102.166 15.9517C101.641 15.9517 101.179 16.0795 100.781 16.3352C100.384 16.5862 100.073 16.9176 99.8509 17.3295C99.6331 17.7367 99.5219 18.1842 99.5171 18.6719V20.1846C99.5171 20.8191 99.6331 21.3636 99.8651 21.8182C100.097 22.268 100.421 22.6136 100.838 22.8551C101.255 23.0918 101.743 23.2102 102.301 23.2102C102.675 23.2102 103.014 23.1581 103.317 23.054C103.62 22.9451 103.883 22.7864 104.105 22.5781C104.328 22.3698 104.496 22.1117 104.609 21.804L107.01 22.0738C106.859 22.7083 106.57 23.2623 106.144 23.7358C105.722 24.2045 105.182 24.5691 104.524 24.8295C103.866 25.0852 103.113 25.2131 102.266 25.2131Z" fill="#101828"/>
<path d="M113.34 25.1917C112.483 25.1917 111.716 24.9716 111.039 24.5312C110.362 24.0909 109.827 23.4517 109.434 22.6136C109.041 21.7756 108.844 20.7576 108.844 19.5596C108.844 18.3475 109.043 17.3248 109.441 16.4915C109.843 15.6534 110.385 15.0213 111.067 14.5952C111.749 14.1643 112.509 13.9488 113.347 13.9488C113.986 13.9488 114.512 14.0577 114.924 14.2756C115.336 14.4886 115.662 14.7467 115.904 15.0497C116.145 15.348 116.332 15.6297 116.465 15.8949H116.571V10.4545H119.15V25H116.621V23.2812H116.465C116.332 23.5464 116.141 23.8281 115.89 24.1264C115.639 24.42 115.307 24.6709 114.895 24.8792C114.483 25.0876 113.965 25.1917 113.34 25.1917ZM114.057 23.0824C114.602 23.0824 115.066 22.9356 115.449 22.642C115.833 22.3437 116.124 21.9294 116.323 21.3991C116.522 20.8688 116.621 20.2509 116.621 19.5454C116.621 18.8399 116.522 18.2268 116.323 17.7059C116.129 17.1851 115.84 16.7803 115.456 16.4915C115.078 16.2026 114.611 16.0582 114.057 16.0582C113.484 16.0582 113.006 16.2074 112.623 16.5057C112.239 16.804 111.95 17.2159 111.756 17.7415C111.562 18.267 111.465 18.8684 111.465 19.5454C111.465 20.2273 111.562 20.8357 111.756 21.3707C111.955 21.901 112.246 22.3201 112.63 22.6278C113.018 22.9309 113.494 23.0824 114.057 23.0824Z" fill="#101828"/>
<path d="M136.133 10.4545H138.768V19.9574C138.768 20.999 138.522 21.9152 138.029 22.7059C137.542 23.4967 136.855 24.1146 135.97 24.5596C135.084 25 134.05 25.2202 132.866 25.2202C131.677 25.2202 130.64 25 129.755 24.5596C128.87 24.1146 128.183 23.4967 127.695 22.7059C127.208 21.9152 126.964 20.999 126.964 19.9574V10.4545H129.599V19.7372C129.599 20.3433 129.731 20.883 129.997 21.3565C130.266 21.83 130.645 22.2017 131.133 22.4716C131.621 22.7367 132.198 22.8693 132.866 22.8693C133.533 22.8693 134.111 22.7367 134.599 22.4716C135.091 22.2017 135.47 21.83 135.735 21.3565C136 20.883 136.133 20.3433 136.133 19.7372V10.4545Z" fill="#101828"/>
<path d="M144.267 10.4545V25H141.632V10.4545H144.267Z" fill="#101828"/>
<defs>
<filter id="filter0_dd_1288_15591" x="0" y="0" width="38" height="38" filterUnits="userSpaceOnUse" color-interpolation-filters="sRGB">
<feFlood flood-opacity="0" result="BackgroundImageFix"/>
<feColorMatrix in="SourceAlpha" type="matrix" values="0 0 0 0 0 0 0 0 0 0 0 0 0 0 0 0 0 0 127 0" result="hardAlpha"/>
<feOffset dy="1"/>
<feGaussianBlur stdDeviation="1"/>
<feColorMatrix type="matrix" values="0 0 0 0 0.0627451 0 0 0 0 0.0941176 0 0 0 0 0.156863 0 0 0 0.06 0"/>
<feBlend mode="normal" in2="BackgroundImageFix" result="effect1_dropShadow_1288_15591"/>
<feColorMatrix in="SourceAlpha" type="matrix" values="0 0 0 0 0 0 0 0 0 0 0 0 0 0 0 0 0 0 127 0" result="hardAlpha"/>
<feOffset dy="1"/>
<feGaussianBlur stdDeviation="1.5"/>
<feColorMatrix type="matrix" values="0 0 0 0 0.0627451 0 0 0 0 0.0941176 0 0 0 0 0.156863 0 0 0 0.1 0"/>
<feBlend mode="normal" in2="effect1_dropShadow_1288_15591" result="effect2_dropShadow_1288_15591"/>
<feBlend mode="normal" in="SourceGraphic" in2="effect2_dropShadow_1288_15591" result="shape"/>
</filter>
<filter id="filter1_dd_1288_15591" x="8" y="8" width="22" height="22" filterUnits="userSpaceOnUse" color-interpolation-filters="sRGB">
<feFlood flood-opacity="0" result="BackgroundImageFix"/>
<feColorMatrix in="SourceAlpha" type="matrix" values="0 0 0 0 0 0 0 0 0 0 0 0 0 0 0 0 0 0 127 0" result="hardAlpha"/>
<feOffset dy="1"/>
<feGaussianBlur stdDeviation="1"/>
<feColorMatrix type="matrix" values="0 0 0 0 0.0627451 0 0 0 0 0.0941176 0 0 0 0 0.156863 0 0 0 0.06 0"/>
<feBlend mode="normal" in2="BackgroundImageFix" result="effect1_dropShadow_1288_15591"/>
<feColorMatrix in="SourceAlpha" type="matrix" values="0 0 0 0 0 0 0 0 0 0 0 0 0 0 0 0 0 0 127 0" result="hardAlpha"/>
<feOffset dy="1"/>
<feGaussianBlur stdDeviation="1.5"/>
<feColorMatrix type="matrix" values="0 0 0 0 0.0627451 0 0 0 0 0.0941176 0 0 0 0 0.156863 0 0 0 0.1 0"/>
<feBlend mode="normal" in2="effect1_dropShadow_1288_15591" result="effect2_dropShadow_1288_15591"/>
<feBlend mode="normal" in="SourceGraphic" in2="effect2_dropShadow_1288_15591" result="shape"/>
</filter>
<filter id="filter2_b_1288_15591" x="-2" y="13" width="42" height="26" filterUnits="userSpaceOnUse" color-interpolation-filters="sRGB">
<feFlood flood-opacity="0" result="BackgroundImageFix"/>
<feGaussianBlur in="BackgroundImage" stdDeviation="2.5"/>
<feComposite in2="SourceAlpha" operator="in" result="effect1_backgroundBlur_1288_15591"/>
<feBlend mode="normal" in="SourceGraphic" in2="effect1_backgroundBlur_1288_15591" result="shape"/>
</filter>
<linearGradient id="paint0_linear_1288_15591" x1="19" y1="2" x2="19" y2="34" gradientUnits="userSpaceOnUse">
<stop stop-color="white"/>
<stop offset="1" stop-color="#D0D5DD"/>
</linearGradient>
<linearGradient id="paint1_linear_1288_15591" x1="15" y1="26" x2="23" y2="10" gradientUnits="userSpaceOnUse">
<stop stop-color="#53389E"/>
<stop offset="1" stop-color="#6941C6"/>
</linearGradient>
</defs>
</svg>
